<svg viewBox="0 0 24 24" xml:space="preserve" xmlns="http://www.w3.org/2000/svg" enable-background="new 0 0 24 24"><g id="_icons"><path d="M4 10h4c1.1 0 2-.9 2-2V4c0-.6-.4-1-1-1s-1 .4-1 1v4H4c-.6 0-1 .4-1 1s.4 1 1 1zM16 10h4c.6 0 1-.4 1-1s-.4-1-1-1h-4V4c0-.6-.4-1-1-1s-1 .4-1 1v4c0 1.1.9 2 2 2zM15 21c.6 0 1-.4 1-1v-4h4c.6 0 1-.4 1-1s-.4-1-1-1h-4c-1.1 0-2 .9-2 2v4c0 .6.4 1 1 1zM4 16h4v4c0 .6.4 1 1 1s1-.4 1-1v-4c0-1.1-.9-2-2-2H4c-.6 0-1 .4-1 1s.4 1 1 1z" fill="#f0f0f0" class="fill-000000"></path></g></svg>