<svg viewBox="0 0 24 24" xml:space="preserve" xmlns="http://www.w3.org/2000/svg" enable-background="new 0 0 24 24"><g id="_icons"><path d="M7 22h2c.6 0 1-.4 1-1s-.4-1-1-1H7c-1.1 0-2-.9-2-2v-2c0-.6-.4-1-1-1s-1 .4-1 1v2c0 2.2 1.8 4 4 4zM15 22h2c2.2 0 4-1.8 4-4v-2c0-.6-.4-1-1-1s-1 .4-1 1v2c0 1.1-.9 2-2 2h-2c-.6 0-1 .4-1 1s.4 1 1 1zM15 5h2c1.1 0 2 .9 2 2v2c0 .6.4 1 1 1s1-.4 1-1V7c0-2.2-1.8-4-4-4h-2c-.6 0-1 .4-1 1s.4 1 1 1zM4 10c.6 0 1-.4 1-1V7c0-1.1.9-2 2-2h2c.6 0 1-.4 1-1s-.4-1-1-1H7C4.8 3 3 4.8 3 7v2c0 .6.4 1 1 1z" fill="#f0f0f0" class="fill-000000"></path></g></svg>